<mxfile host="Electron" modified="2024-05-12T20:34:18.025Z" agent="Mozilla/5.0 (Windows NT 10.0; Win64; x64) AppleWebKit/537.36 (KHTML, like Gecko) draw.io/24.2.5 Chrome/120.0.6099.109 Electron/28.1.0 Safari/537.36" etag="hqpDF2IseK3Ioc6lzC7s" version="24.2.5" type="device">
  <diagram name="Pagina-1" id="mD4ny_UwJCW5K_lFAApE">
    <mxGraphModel dx="1624" dy="466" grid="1" gridSize="10" guides="1" tooltips="1" connect="1" arrows="1" fold="1" page="1" pageScale="1" pageWidth="827" pageHeight="1169" math="0" shadow="0">
      <root>
        <mxCell id="0" />
        <mxCell id="1" parent="0" />
        <mxCell id="sR8tqqqlSOS_DWlg1nnR-4" value="&lt;font style=&quot;font-size: 8px;&quot;&gt;Punteggio&lt;/font&gt;" style="text;html=1;align=center;verticalAlign=middle;whiteSpace=wrap;rounded=1;strokeColor=none;" vertex="1" parent="1">
          <mxGeometry x="-288.56" y="425.18" width="49" height="23" as="geometry" />
        </mxCell>
        <mxCell id="sR8tqqqlSOS_DWlg1nnR-12" value="" style="shape=flexArrow;endArrow=classic;html=1;rounded=0;fillColor=#000000;endWidth=8.380952380952381;endSize=2.5142857142857142;" edge="1" parent="1">
          <mxGeometry width="50" height="50" relative="1" as="geometry">
            <mxPoint x="-211.68" y="446.18" as="sourcePoint" />
            <mxPoint x="-211.68" y="426.18" as="targetPoint" />
          </mxGeometry>
        </mxCell>
        <mxCell id="sR8tqqqlSOS_DWlg1nnR-13" value="Avatar&lt;div&gt;corrente&lt;/div&gt;" style="whiteSpace=wrap;html=1;align=center;" vertex="1" parent="1">
          <mxGeometry x="-200" y="483.25" width="60" height="32.5" as="geometry" />
        </mxCell>
        <mxCell id="sR8tqqqlSOS_DWlg1nnR-14" value="" style="endArrow=none;html=1;rounded=0;" edge="1" parent="1">
          <mxGeometry width="50" height="50" relative="1" as="geometry">
            <mxPoint x="-251.68" y="446.18" as="sourcePoint" />
            <mxPoint x="-171.68" y="446.18" as="targetPoint" />
          </mxGeometry>
        </mxCell>
        <mxCell id="sR8tqqqlSOS_DWlg1nnR-16" value="&lt;font style=&quot;font-size: 8px;&quot;&gt;Nickname&lt;/font&gt;" style="text;html=1;align=center;verticalAlign=middle;whiteSpace=wrap;rounded=1;strokeColor=none;" vertex="1" parent="1">
          <mxGeometry x="-207.69" y="355.13" width="30" height="23.5" as="geometry" />
        </mxCell>
        <mxCell id="sR8tqqqlSOS_DWlg1nnR-17" value="" style="endArrow=none;html=1;rounded=0;" edge="1" parent="1">
          <mxGeometry width="50" height="50" relative="1" as="geometry">
            <mxPoint x="-251.68" y="483" as="sourcePoint" />
            <mxPoint x="-251.68" y="445.7" as="targetPoint" />
          </mxGeometry>
        </mxCell>
        <mxCell id="sR8tqqqlSOS_DWlg1nnR-18" value="" style="endArrow=none;html=1;rounded=0;exitX=0.478;exitY=0.006;exitDx=0;exitDy=0;exitPerimeter=0;" edge="1" parent="1" source="sR8tqqqlSOS_DWlg1nnR-13">
          <mxGeometry width="50" height="50" relative="1" as="geometry">
            <mxPoint x="-221.68" y="496.18" as="sourcePoint" />
            <mxPoint x="-171.68" y="445.7" as="targetPoint" />
          </mxGeometry>
        </mxCell>
        <mxCell id="sR8tqqqlSOS_DWlg1nnR-33" style="edgeStyle=orthogonalEdgeStyle;rounded=0;orthogonalLoop=1;jettySize=auto;html=1;exitX=0.053;exitY=1.011;exitDx=0;exitDy=0;endArrow=oval;endFill=0;exitPerimeter=0;" edge="1" parent="1">
          <mxGeometry relative="1" as="geometry">
            <mxPoint x="-238.56" y="438.85" as="targetPoint" />
            <mxPoint x="-228.49999999999994" y="426.18" as="sourcePoint" />
            <Array as="points">
              <mxPoint x="-228.56" y="438.85" />
            </Array>
          </mxGeometry>
        </mxCell>
        <mxCell id="sR8tqqqlSOS_DWlg1nnR-39" value="&lt;font style=&quot;font-size: 8px;&quot;&gt;Ora&lt;/font&gt;" style="text;html=1;align=center;verticalAlign=middle;whiteSpace=wrap;rounded=1;strokeColor=none;glass=0;" vertex="1" parent="1">
          <mxGeometry x="-304" y="368" width="50" height="15" as="geometry" />
        </mxCell>
        <mxCell id="sR8tqqqlSOS_DWlg1nnR-40" value="&lt;font style=&quot;font-size: 8px;&quot;&gt;Data&lt;/font&gt;" style="text;html=1;align=center;verticalAlign=middle;whiteSpace=wrap;rounded=1;strokeColor=none;glass=0;" vertex="1" parent="1">
          <mxGeometry x="-306" y="355.13" width="50" height="15" as="geometry" />
        </mxCell>
        <mxCell id="sR8tqqqlSOS_DWlg1nnR-41" style="edgeStyle=orthogonalEdgeStyle;rounded=0;orthogonalLoop=1;jettySize=auto;html=1;exitX=0;exitY=0;exitDx=0;exitDy=0;endArrow=oval;endFill=0;" edge="1" parent="1">
          <mxGeometry relative="1" as="geometry">
            <mxPoint x="-267.2999999999999" y="364.63" as="targetPoint" />
            <mxPoint x="-247.92000000000002" y="364.63" as="sourcePoint" />
            <Array as="points" />
          </mxGeometry>
        </mxCell>
        <mxCell id="sR8tqqqlSOS_DWlg1nnR-42" style="edgeStyle=orthogonalEdgeStyle;rounded=0;orthogonalLoop=1;jettySize=auto;html=1;endArrow=oval;endFill=0;" edge="1" parent="1">
          <mxGeometry relative="1" as="geometry">
            <mxPoint x="-267.2999999999999" y="377.75" as="targetPoint" />
            <mxPoint x="-247.2999999999999" y="377.75" as="sourcePoint" />
            <Array as="points" />
          </mxGeometry>
        </mxCell>
        <mxCell id="sR8tqqqlSOS_DWlg1nnR-43" value="" style="endArrow=none;html=1;rounded=0;" edge="1" parent="1">
          <mxGeometry width="50" height="50" relative="1" as="geometry">
            <mxPoint x="-236.74" y="398.13" as="sourcePoint" />
            <mxPoint x="-236.74" y="378.13" as="targetPoint" />
          </mxGeometry>
        </mxCell>
        <mxCell id="sR8tqqqlSOS_DWlg1nnR-44" value="Avatar" style="whiteSpace=wrap;html=1;align=center;" vertex="1" parent="1">
          <mxGeometry x="-241.68" y="396.18" width="60" height="30" as="geometry" />
        </mxCell>
        <mxCell id="sR8tqqqlSOS_DWlg1nnR-49" value="&lt;font style=&quot;font-size: 8px;&quot;&gt;Ora&lt;/font&gt;" style="text;html=1;align=center;verticalAlign=middle;whiteSpace=wrap;rounded=1;strokeColor=none;glass=0;" vertex="1" parent="1">
          <mxGeometry x="-295.1999999999999" y="540.13" width="50" height="15" as="geometry" />
        </mxCell>
        <mxCell id="sR8tqqqlSOS_DWlg1nnR-50" value="&lt;font style=&quot;font-size: 8px;&quot;&gt;Data&lt;/font&gt;" style="text;html=1;align=center;verticalAlign=middle;whiteSpace=wrap;rounded=1;strokeColor=none;glass=0;" vertex="1" parent="1">
          <mxGeometry x="-295.1999999999999" y="527.6899999999999" width="50" height="15" as="geometry" />
        </mxCell>
        <mxCell id="sR8tqqqlSOS_DWlg1nnR-51" style="edgeStyle=orthogonalEdgeStyle;rounded=0;orthogonalLoop=1;jettySize=auto;html=1;exitX=0;exitY=0;exitDx=0;exitDy=0;endArrow=oval;endFill=0;" edge="1" parent="1">
          <mxGeometry relative="1" as="geometry">
            <mxPoint x="-256.66999999999985" y="536" as="targetPoint" />
            <mxPoint x="-237.29" y="536" as="sourcePoint" />
            <Array as="points" />
          </mxGeometry>
        </mxCell>
        <mxCell id="sR8tqqqlSOS_DWlg1nnR-52" style="edgeStyle=orthogonalEdgeStyle;rounded=0;orthogonalLoop=1;jettySize=auto;html=1;endArrow=oval;endFill=0;" edge="1" parent="1">
          <mxGeometry relative="1" as="geometry">
            <mxPoint x="-256.6699999999999" y="550" as="targetPoint" />
            <mxPoint x="-236.66999999999987" y="550" as="sourcePoint" />
            <Array as="points" />
          </mxGeometry>
        </mxCell>
        <mxCell id="sR8tqqqlSOS_DWlg1nnR-53" value="" style="endArrow=none;html=1;rounded=0;" edge="1" parent="1">
          <mxGeometry width="50" height="50" relative="1" as="geometry">
            <mxPoint x="-226.82" y="544.44" as="sourcePoint" />
            <mxPoint x="-226.82" y="507.14" as="targetPoint" />
          </mxGeometry>
        </mxCell>
        <mxCell id="sR8tqqqlSOS_DWlg1nnR-54" value="Avatar&lt;div&gt;passato&lt;/div&gt;" style="whiteSpace=wrap;html=1;align=center;" vertex="1" parent="1">
          <mxGeometry x="-281.25" y="483.25" width="60" height="33" as="geometry" />
        </mxCell>
        <mxCell id="sR8tqqqlSOS_DWlg1nnR-55" value="&lt;p style=&quot;line-height: 110%;&quot;&gt;&lt;font style=&quot;font-size: 7px;&quot;&gt;DataFine&lt;/font&gt;&lt;/p&gt;" style="ellipse;whiteSpace=wrap;html=1;" vertex="1" parent="1">
          <mxGeometry x="-245.2" y="530.68" width="36.87" height="22.63" as="geometry" />
        </mxCell>
        <mxCell id="sR8tqqqlSOS_DWlg1nnR-65" value="" style="curved=1;endArrow=oval;html=1;rounded=0;entryX=0.642;entryY=0.924;entryDx=0;entryDy=0;entryPerimeter=0;endFill=1;" edge="1" parent="1">
          <mxGeometry width="50" height="50" relative="1" as="geometry">
            <mxPoint x="-241.68" y="389.77000000000004" as="sourcePoint" />
            <mxPoint x="-175.35999999999984" y="377.49000000000007" as="targetPoint" />
            <Array as="points">
              <mxPoint x="-230.3" y="389.77000000000004" />
              <mxPoint x="-180.3" y="389.77000000000004" />
            </Array>
          </mxGeometry>
        </mxCell>
        <mxCell id="sR8tqqqlSOS_DWlg1nnR-66" style="edgeStyle=orthogonalEdgeStyle;rounded=0;orthogonalLoop=1;jettySize=auto;html=1;endArrow=oval;endFill=0;" edge="1" parent="1">
          <mxGeometry relative="1" as="geometry">
            <mxPoint x="-195" y="376.68" as="targetPoint" />
            <mxPoint x="-195" y="396.18" as="sourcePoint" />
            <Array as="points">
              <mxPoint x="-195" y="376.18" />
            </Array>
          </mxGeometry>
        </mxCell>
        <mxCell id="sR8tqqqlSOS_DWlg1nnR-67" value="&lt;p style=&quot;line-height: 110%;&quot;&gt;&lt;font style=&quot;font-size: 7px;&quot;&gt;DataCrea&lt;/font&gt;&lt;/p&gt;" style="ellipse;whiteSpace=wrap;html=1;" vertex="1" parent="1">
          <mxGeometry x="-255.2999999999999" y="360.25" width="36.12" height="20" as="geometry" />
        </mxCell>
      </root>
    </mxGraphModel>
  </diagram>
</mxfile>
